<svg height="682.66669pt" viewBox="-21 -21 682.66669 682.66669" width="682.66669pt" xmlns="http://www.w3.org/2000/svg"><path d="m546.273438 93.726562c-60.433594-60.441406-140.800782-93.726562-226.273438-93.726562s-165.839844 33.285156-226.273438 93.726562c-60.441406 60.433594-93.726562 140.800782-93.726562 226.273438s33.285156 165.839844 93.726562 226.273438c60.433594 60.441406 140.800782 93.726562 226.273438 93.726562s165.839844-33.285156 226.273438-93.726562c60.441406-60.433594 93.726562-140.800782 93.726562-226.273438s-33.285156-165.839844-93.726562-226.273438zm-224.757813 359.773438c-10.351563 0-18.742187-8.402344-18.742187-18.75 0-10.351562 8.390624-18.75 18.742187-18.75 10.359375 0 18.75 8.398438 18.75 18.75 0 10.347656-8.390625 18.75-18.75 18.75zm67.796875-59.949219c-7.324219 7.324219-19.273438 7.25-26.597656-.066406-.015625-.007813-.027344-.03125-.039063-.046875-22.75-22.652344-59.675781-22.625-82.386719.074219-7.324218 7.328125-19.199218 7.328125-26.515624 0-7.324219-7.308594-7.324219-19.183594 0-26.511719 37.351562-37.359375 98.140624-37.359375 135.503906 0l-.015625.011719c7.285156 7.324219 7.363281 19.222656.050781 26.539062zm55.375-55.691406c-7.324219 7.328125-19.277344 7.253906-26.601562-.070313-53.359376-53.351562-140.175782-53.351562-193.523438 0-7.328125 7.324219-19.203125 7.324219-26.523438 0-7.316406-7.324218-7.316406-19.191406 0-26.515624 67.972657-67.972657 178.585938-67.972657 246.5625 0 7.320313 7.324218 7.410157 19.265624.085938 26.585937zm52.101562-52.25c-7.328124 7.328125-19.203124 7.328125-26.523437 0-82.015625-82.019531-215.480469-82.019531-297.492187 0-7.324219 7.328125-19.351563 7.355469-26.675782.03125-7.308594-7.316406-7.160156-19.230469.152344-26.539063 96.648438-96.648437 253.886719-96.648437 350.539062 0 7.3125 7.308594 7.3125 19.183594 0 26.507813zm0 0"/></svg>